<mxfile host="app.diagrams.net" modified="2023-06-18T16:30:01.489Z" agent="Mozilla/5.0 (Macintosh; Intel Mac OS X 10_15_7) AppleWebKit/605.1.15 (KHTML, like Gecko) Version/16.4 Safari/605.1.15" etag="GVeGz6DRAkccY-i88AbS" version="21.3.4" type="device">
  <diagram id="C5RBs43oDa-KdzZeNtuy" name="Page-1">
    <mxGraphModel dx="1797" dy="1165" grid="1" gridSize="10" guides="1" tooltips="1" connect="1" arrows="1" fold="1" page="1" pageScale="1" pageWidth="827" pageHeight="1169" math="0" shadow="0">
      <root>
        <mxCell id="WIyWlLk6GJQsqaUBKTNV-0" />
        <mxCell id="WIyWlLk6GJQsqaUBKTNV-1" parent="WIyWlLk6GJQsqaUBKTNV-0" />
        <mxCell id="vHfRtZglOtGdkVwa5CTu-2" value="&lt;h1&gt;Inputs&lt;/h1&gt;&lt;p&gt;total_charge&lt;/p&gt;&lt;p&gt;MatinÃ©e_std&lt;/p&gt;&lt;p&gt;Maintee_vip&lt;/p&gt;&lt;p&gt;Evening_std&lt;/p&gt;&lt;p&gt;Evening_Vip&lt;/p&gt;&lt;p&gt;Date&lt;/p&gt;&lt;p&gt;Sncak Charge&lt;/p&gt;&lt;p&gt;ticket_charge&lt;/p&gt;&lt;p&gt;cover_price&lt;/p&gt;&lt;p&gt;isDiscounted&lt;/p&gt;&lt;p&gt;snack_Price&lt;/p&gt;&lt;p&gt;Tips&lt;/p&gt;&lt;p&gt;&lt;br&gt;&lt;span style=&quot;box-sizing: inherit; caret-color: rgba(0, 0, 0, 0); color: rgba(0, 0, 0, 0); height: 1em; font-family: g_d0_f2, sans-serif; font-size: 12px; position: absolute; top: 164.18px; left: 114.42px; transform-origin: left bottom; pointer-events: all; transform: scaleX(0.813458) translateY(25%);&quot;&gt; &lt;/span&gt;&lt;/p&gt;" style="text;html=1;strokeColor=none;fillColor=none;spacing=5;spacingTop=-20;whiteSpace=wrap;overflow=hidden;rounded=0;fontSize=16;" vertex="1" parent="WIyWlLk6GJQsqaUBKTNV-1">
          <mxGeometry x="20" y="93" width="220" height="507" as="geometry" />
        </mxCell>
        <mxCell id="vHfRtZglOtGdkVwa5CTu-4" style="edgeStyle=none;curved=1;rounded=0;orthogonalLoop=1;jettySize=auto;html=1;fontSize=12;startSize=8;endSize=8;" edge="1" parent="WIyWlLk6GJQsqaUBKTNV-1" source="vHfRtZglOtGdkVwa5CTu-3">
          <mxGeometry relative="1" as="geometry">
            <mxPoint x="410" y="310" as="targetPoint" />
          </mxGeometry>
        </mxCell>
        <mxCell id="vHfRtZglOtGdkVwa5CTu-3" value="Start" style="ellipse;whiteSpace=wrap;html=1;fontSize=16;" vertex="1" parent="WIyWlLk6GJQsqaUBKTNV-1">
          <mxGeometry x="330" y="100" width="160" height="100" as="geometry" />
        </mxCell>
        <mxCell id="vHfRtZglOtGdkVwa5CTu-6" style="edgeStyle=none;curved=1;rounded=0;orthogonalLoop=1;jettySize=auto;html=1;fontSize=12;startSize=8;endSize=8;" edge="1" parent="WIyWlLk6GJQsqaUBKTNV-1" source="vHfRtZglOtGdkVwa5CTu-5">
          <mxGeometry relative="1" as="geometry">
            <mxPoint x="415" y="450" as="targetPoint" />
          </mxGeometry>
        </mxCell>
        <mxCell id="vHfRtZglOtGdkVwa5CTu-5" value="Prompt user to enter Matinee_charge ,Evening charge&amp;nbsp;" style="whiteSpace=wrap;html=1;fontSize=16;" vertex="1" parent="WIyWlLk6GJQsqaUBKTNV-1">
          <mxGeometry x="330" y="290" width="170" height="60" as="geometry" />
        </mxCell>
        <mxCell id="vHfRtZglOtGdkVwa5CTu-9" style="edgeStyle=none;curved=1;rounded=0;orthogonalLoop=1;jettySize=auto;html=1;fontSize=12;startSize=8;endSize=8;" edge="1" parent="WIyWlLk6GJQsqaUBKTNV-1" source="vHfRtZglOtGdkVwa5CTu-7">
          <mxGeometry relative="1" as="geometry">
            <mxPoint x="415" y="610" as="targetPoint" />
          </mxGeometry>
        </mxCell>
        <mxCell id="vHfRtZglOtGdkVwa5CTu-7" value="Store value &lt;br&gt;Receipt-&amp;gt; matinee_charge,&lt;br&gt;Receipt Evening charge&amp;nbsp;" style="whiteSpace=wrap;html=1;fontSize=16;" vertex="1" parent="WIyWlLk6GJQsqaUBKTNV-1">
          <mxGeometry x="320" y="430" width="190" height="80" as="geometry" />
        </mxCell>
        <mxCell id="vHfRtZglOtGdkVwa5CTu-11" style="edgeStyle=none;curved=1;rounded=0;orthogonalLoop=1;jettySize=auto;html=1;fontSize=12;startSize=8;endSize=8;" edge="1" parent="WIyWlLk6GJQsqaUBKTNV-1" source="vHfRtZglOtGdkVwa5CTu-10">
          <mxGeometry relative="1" as="geometry">
            <mxPoint x="420" y="760" as="targetPoint" />
          </mxGeometry>
        </mxCell>
        <mxCell id="vHfRtZglOtGdkVwa5CTu-10" value="Determine the Date" style="whiteSpace=wrap;html=1;fontSize=16;" vertex="1" parent="WIyWlLk6GJQsqaUBKTNV-1">
          <mxGeometry x="320" y="590" width="200" height="60" as="geometry" />
        </mxCell>
        <mxCell id="vHfRtZglOtGdkVwa5CTu-13" style="edgeStyle=none;curved=1;rounded=0;orthogonalLoop=1;jettySize=auto;html=1;fontSize=12;startSize=8;endSize=8;entryX=0.5;entryY=0;entryDx=0;entryDy=0;" edge="1" parent="WIyWlLk6GJQsqaUBKTNV-1" source="vHfRtZglOtGdkVwa5CTu-12" target="vHfRtZglOtGdkVwa5CTu-21">
          <mxGeometry relative="1" as="geometry">
            <mxPoint x="415.0000000000002" y="850" as="targetPoint" />
          </mxGeometry>
        </mxCell>
        <mxCell id="vHfRtZglOtGdkVwa5CTu-12" value="Store price" style="whiteSpace=wrap;html=1;fontSize=16;" vertex="1" parent="WIyWlLk6GJQsqaUBKTNV-1">
          <mxGeometry x="325" y="740" width="190" height="60" as="geometry" />
        </mxCell>
        <mxCell id="vHfRtZglOtGdkVwa5CTu-20" style="edgeStyle=none;curved=1;rounded=0;orthogonalLoop=1;jettySize=auto;html=1;fontSize=12;startSize=8;endSize=8;" edge="1" parent="WIyWlLk6GJQsqaUBKTNV-1">
          <mxGeometry relative="1" as="geometry">
            <mxPoint x="419.29000000000025" y="1040" as="sourcePoint" />
            <mxPoint x="419.29000000000025" y="1130" as="targetPoint" />
          </mxGeometry>
        </mxCell>
        <mxCell id="vHfRtZglOtGdkVwa5CTu-21" value="Receipt-&amp;gt; ticket_charge = (10 * Receipt -&amp;gt; maintee_std)&lt;br style=&quot;border-color: var(--border-color);&quot;&gt;Receipt-&amp;gt; ticket_charge =(15*Receipt -&amp;gt;Maintee Vip)" style="whiteSpace=wrap;html=1;fontSize=16;" vertex="1" parent="WIyWlLk6GJQsqaUBKTNV-1">
          <mxGeometry x="320" y="930" width="200" height="110" as="geometry" />
        </mxCell>
        <mxCell id="vHfRtZglOtGdkVwa5CTu-23" style="edgeStyle=none;curved=1;rounded=0;orthogonalLoop=1;jettySize=auto;html=1;fontSize=12;startSize=8;endSize=8;" edge="1" parent="WIyWlLk6GJQsqaUBKTNV-1" source="vHfRtZglOtGdkVwa5CTu-22">
          <mxGeometry relative="1" as="geometry">
            <mxPoint x="420.0000000000002" y="1330" as="targetPoint" />
          </mxGeometry>
        </mxCell>
        <mxCell id="vHfRtZglOtGdkVwa5CTu-22" value="Receipt -&amp;gt; ticket_charge = (15 * Receipt-&amp;gt; Evening_std)&lt;br&gt;Receipt-&amp;gt;ticket_charge = (30 * Receipt-&amp;gt;evening_vp)" style="rounded=0;whiteSpace=wrap;html=1;fontSize=16;" vertex="1" parent="WIyWlLk6GJQsqaUBKTNV-1">
          <mxGeometry x="310" y="1130" width="220" height="110" as="geometry" />
        </mxCell>
        <mxCell id="vHfRtZglOtGdkVwa5CTu-24" value="End&amp;nbsp;" style="ellipse;whiteSpace=wrap;html=1;fontSize=16;" vertex="1" parent="WIyWlLk6GJQsqaUBKTNV-1">
          <mxGeometry x="360" y="1500" width="120" height="90" as="geometry" />
        </mxCell>
        <mxCell id="vHfRtZglOtGdkVwa5CTu-26" style="edgeStyle=none;curved=1;rounded=0;orthogonalLoop=1;jettySize=auto;html=1;entryX=0.5;entryY=0;entryDx=0;entryDy=0;fontSize=12;startSize=8;endSize=8;" edge="1" parent="WIyWlLk6GJQsqaUBKTNV-1" source="vHfRtZglOtGdkVwa5CTu-25" target="vHfRtZglOtGdkVwa5CTu-24">
          <mxGeometry relative="1" as="geometry" />
        </mxCell>
        <mxCell id="vHfRtZglOtGdkVwa5CTu-25" value="Calculate the tips" style="rounded=0;whiteSpace=wrap;html=1;fontSize=16;" vertex="1" parent="WIyWlLk6GJQsqaUBKTNV-1">
          <mxGeometry x="320" y="1330" width="210" height="70" as="geometry" />
        </mxCell>
        <mxCell id="vHfRtZglOtGdkVwa5CTu-27" value="Sub Process 1" style="text;html=1;align=center;verticalAlign=middle;resizable=0;points=[];autosize=1;strokeColor=none;fillColor=none;fontSize=16;" vertex="1" parent="WIyWlLk6GJQsqaUBKTNV-1">
          <mxGeometry x="790" y="28" width="130" height="30" as="geometry" />
        </mxCell>
        <mxCell id="vHfRtZglOtGdkVwa5CTu-29" style="edgeStyle=none;curved=1;rounded=0;orthogonalLoop=1;jettySize=auto;html=1;fontSize=12;startSize=8;endSize=8;" edge="1" parent="WIyWlLk6GJQsqaUBKTNV-1" source="vHfRtZglOtGdkVwa5CTu-28" target="vHfRtZglOtGdkVwa5CTu-30">
          <mxGeometry relative="1" as="geometry">
            <mxPoint x="640" y="300" as="targetPoint" />
          </mxGeometry>
        </mxCell>
        <mxCell id="vHfRtZglOtGdkVwa5CTu-28" value="Start" style="ellipse;whiteSpace=wrap;html=1;fontSize=16;" vertex="1" parent="WIyWlLk6GJQsqaUBKTNV-1">
          <mxGeometry x="800" y="100" width="120" height="80" as="geometry" />
        </mxCell>
        <mxCell id="vHfRtZglOtGdkVwa5CTu-38" style="edgeStyle=none;curved=1;rounded=0;orthogonalLoop=1;jettySize=auto;html=1;fontSize=12;startSize=8;endSize=8;" edge="1" parent="WIyWlLk6GJQsqaUBKTNV-1" source="vHfRtZglOtGdkVwa5CTu-30">
          <mxGeometry relative="1" as="geometry">
            <mxPoint x="865" y="480" as="targetPoint" />
          </mxGeometry>
        </mxCell>
        <mxCell id="vHfRtZglOtGdkVwa5CTu-30" value="VIP" style="rounded=1;whiteSpace=wrap;html=1;fontSize=16;" vertex="1" parent="WIyWlLk6GJQsqaUBKTNV-1">
          <mxGeometry x="810" y="290" width="110" height="60" as="geometry" />
        </mxCell>
        <mxCell id="vHfRtZglOtGdkVwa5CTu-46" style="edgeStyle=none;curved=1;rounded=0;orthogonalLoop=1;jettySize=auto;html=1;fontSize=12;startSize=8;endSize=8;entryX=0.5;entryY=1;entryDx=0;entryDy=0;" edge="1" parent="WIyWlLk6GJQsqaUBKTNV-1" source="vHfRtZglOtGdkVwa5CTu-34" target="vHfRtZglOtGdkVwa5CTu-39">
          <mxGeometry relative="1" as="geometry">
            <mxPoint x="900" y="715" as="targetPoint" />
            <Array as="points">
              <mxPoint x="830" y="715" />
            </Array>
          </mxGeometry>
        </mxCell>
        <mxCell id="vHfRtZglOtGdkVwa5CTu-47" value="NO" style="edgeLabel;html=1;align=center;verticalAlign=middle;resizable=0;points=[];fontSize=16;" vertex="1" connectable="0" parent="vHfRtZglOtGdkVwa5CTu-46">
          <mxGeometry x="-0.3342" y="20" relative="1" as="geometry">
            <mxPoint y="-1" as="offset" />
          </mxGeometry>
        </mxCell>
        <mxCell id="vHfRtZglOtGdkVwa5CTu-50" style="edgeStyle=none;curved=1;rounded=0;orthogonalLoop=1;jettySize=auto;html=1;fontSize=12;startSize=8;endSize=8;" edge="1" parent="WIyWlLk6GJQsqaUBKTNV-1" source="vHfRtZglOtGdkVwa5CTu-34">
          <mxGeometry relative="1" as="geometry">
            <mxPoint x="705" y="940" as="targetPoint" />
          </mxGeometry>
        </mxCell>
        <mxCell id="vHfRtZglOtGdkVwa5CTu-65" value="Yes" style="edgeLabel;html=1;align=center;verticalAlign=middle;resizable=0;points=[];fontSize=16;" vertex="1" connectable="0" parent="vHfRtZglOtGdkVwa5CTu-50">
          <mxGeometry x="-0.2248" y="1" relative="1" as="geometry">
            <mxPoint as="offset" />
          </mxGeometry>
        </mxCell>
        <mxCell id="vHfRtZglOtGdkVwa5CTu-34" value="Maintee" style="rhombus;whiteSpace=wrap;html=1;fontSize=16;" vertex="1" parent="WIyWlLk6GJQsqaUBKTNV-1">
          <mxGeometry x="640" y="640" width="130" height="150" as="geometry" />
        </mxCell>
        <mxCell id="vHfRtZglOtGdkVwa5CTu-37" style="edgeStyle=none;curved=1;rounded=0;orthogonalLoop=1;jettySize=auto;html=1;entryX=0.5;entryY=1;entryDx=0;entryDy=0;fontSize=12;startSize=8;endSize=8;" edge="1" parent="WIyWlLk6GJQsqaUBKTNV-1">
          <mxGeometry relative="1" as="geometry">
            <mxPoint x="1030" y="720" as="sourcePoint" />
            <mxPoint x="1030" y="720" as="targetPoint" />
          </mxGeometry>
        </mxCell>
        <mxCell id="vHfRtZglOtGdkVwa5CTu-41" style="edgeStyle=none;curved=1;rounded=0;orthogonalLoop=1;jettySize=auto;html=1;fontSize=12;startSize=8;endSize=8;" edge="1" parent="WIyWlLk6GJQsqaUBKTNV-1" source="vHfRtZglOtGdkVwa5CTu-39">
          <mxGeometry relative="1" as="geometry">
            <mxPoint x="1080" y="490" as="targetPoint" />
          </mxGeometry>
        </mxCell>
        <mxCell id="vHfRtZglOtGdkVwa5CTu-42" style="edgeStyle=none;curved=1;rounded=0;orthogonalLoop=1;jettySize=auto;html=1;fontSize=12;startSize=8;endSize=8;" edge="1" parent="WIyWlLk6GJQsqaUBKTNV-1" source="vHfRtZglOtGdkVwa5CTu-39">
          <mxGeometry relative="1" as="geometry">
            <mxPoint x="700" y="490" as="targetPoint" />
          </mxGeometry>
        </mxCell>
        <mxCell id="vHfRtZglOtGdkVwa5CTu-39" value="Calculate the date" style="whiteSpace=wrap;html=1;fontSize=16;" vertex="1" parent="WIyWlLk6GJQsqaUBKTNV-1">
          <mxGeometry x="810" y="460" width="120" height="60" as="geometry" />
        </mxCell>
        <mxCell id="vHfRtZglOtGdkVwa5CTu-43" value="" style="endArrow=classic;html=1;rounded=0;fontSize=12;startSize=8;endSize=8;curved=1;" edge="1" parent="WIyWlLk6GJQsqaUBKTNV-1" target="vHfRtZglOtGdkVwa5CTu-34">
          <mxGeometry width="50" height="50" relative="1" as="geometry">
            <mxPoint x="700" y="490" as="sourcePoint" />
            <mxPoint x="660" y="690" as="targetPoint" />
          </mxGeometry>
        </mxCell>
        <mxCell id="vHfRtZglOtGdkVwa5CTu-44" value="" style="endArrow=classic;html=1;rounded=0;fontSize=12;startSize=8;endSize=8;curved=1;" edge="1" parent="WIyWlLk6GJQsqaUBKTNV-1">
          <mxGeometry width="50" height="50" relative="1" as="geometry">
            <mxPoint x="1080" y="490" as="sourcePoint" />
            <mxPoint x="1080" y="650" as="targetPoint" />
          </mxGeometry>
        </mxCell>
        <mxCell id="vHfRtZglOtGdkVwa5CTu-48" style="edgeStyle=none;curved=1;rounded=0;orthogonalLoop=1;jettySize=auto;html=1;fontSize=12;startSize=8;endSize=8;entryX=0.619;entryY=1.017;entryDx=0;entryDy=0;entryPerimeter=0;" edge="1" parent="WIyWlLk6GJQsqaUBKTNV-1" source="vHfRtZglOtGdkVwa5CTu-45" target="vHfRtZglOtGdkVwa5CTu-39">
          <mxGeometry relative="1" as="geometry">
            <mxPoint x="910" y="705" as="targetPoint" />
            <Array as="points">
              <mxPoint x="960" y="705" />
            </Array>
          </mxGeometry>
        </mxCell>
        <mxCell id="vHfRtZglOtGdkVwa5CTu-49" value="NO" style="edgeLabel;html=1;align=center;verticalAlign=middle;resizable=0;points=[];fontSize=16;" vertex="1" connectable="0" parent="vHfRtZglOtGdkVwa5CTu-48">
          <mxGeometry x="-0.209" y="-9" relative="1" as="geometry">
            <mxPoint as="offset" />
          </mxGeometry>
        </mxCell>
        <mxCell id="vHfRtZglOtGdkVwa5CTu-52" value="Yes" style="edgeStyle=none;curved=1;rounded=0;orthogonalLoop=1;jettySize=auto;html=1;fontSize=12;startSize=8;endSize=8;" edge="1" parent="WIyWlLk6GJQsqaUBKTNV-1" source="vHfRtZglOtGdkVwa5CTu-45">
          <mxGeometry relative="1" as="geometry">
            <mxPoint x="1080" y="930" as="targetPoint" />
          </mxGeometry>
        </mxCell>
        <mxCell id="vHfRtZglOtGdkVwa5CTu-45" value="Evening" style="rhombus;whiteSpace=wrap;html=1;fontSize=16;" vertex="1" parent="WIyWlLk6GJQsqaUBKTNV-1">
          <mxGeometry x="1010" y="630" width="130" height="150" as="geometry" />
        </mxCell>
        <mxCell id="vHfRtZglOtGdkVwa5CTu-51" value="Pay 15$" style="whiteSpace=wrap;html=1;fontSize=16;" vertex="1" parent="WIyWlLk6GJQsqaUBKTNV-1">
          <mxGeometry x="650" y="930" width="120" height="60" as="geometry" />
        </mxCell>
        <mxCell id="vHfRtZglOtGdkVwa5CTu-53" value="Pay 30$" style="whiteSpace=wrap;html=1;fontSize=16;" vertex="1" parent="WIyWlLk6GJQsqaUBKTNV-1">
          <mxGeometry x="1020" y="920" width="120" height="60" as="geometry" />
        </mxCell>
        <mxCell id="vHfRtZglOtGdkVwa5CTu-58" value="" style="endArrow=classic;html=1;rounded=0;fontSize=12;startSize=8;endSize=8;curved=1;" edge="1" parent="WIyWlLk6GJQsqaUBKTNV-1">
          <mxGeometry width="50" height="50" relative="1" as="geometry">
            <mxPoint x="709.29" y="1000" as="sourcePoint" />
            <mxPoint x="709.29" y="1140" as="targetPoint" />
          </mxGeometry>
        </mxCell>
        <mxCell id="vHfRtZglOtGdkVwa5CTu-61" style="edgeStyle=none;curved=1;rounded=0;orthogonalLoop=1;jettySize=auto;html=1;fontSize=12;startSize=8;endSize=8;" edge="1" parent="WIyWlLk6GJQsqaUBKTNV-1" source="vHfRtZglOtGdkVwa5CTu-60">
          <mxGeometry relative="1" as="geometry">
            <mxPoint x="710" y="1400" as="targetPoint" />
          </mxGeometry>
        </mxCell>
        <mxCell id="vHfRtZglOtGdkVwa5CTu-63" value="Yes&amp;nbsp;" style="edgeLabel;html=1;align=center;verticalAlign=middle;resizable=0;points=[];fontSize=16;" vertex="1" connectable="0" parent="vHfRtZglOtGdkVwa5CTu-61">
          <mxGeometry x="-0.3844" y="-1" relative="1" as="geometry">
            <mxPoint as="offset" />
          </mxGeometry>
        </mxCell>
        <mxCell id="vHfRtZglOtGdkVwa5CTu-74" value="NO" style="edgeStyle=none;curved=1;rounded=0;orthogonalLoop=1;jettySize=auto;html=1;fontSize=12;startSize=8;endSize=8;entryX=0.5;entryY=0;entryDx=0;entryDy=0;" edge="1" parent="WIyWlLk6GJQsqaUBKTNV-1" source="vHfRtZglOtGdkVwa5CTu-60" target="vHfRtZglOtGdkVwa5CTu-72">
          <mxGeometry relative="1" as="geometry">
            <mxPoint x="890" y="1205" as="targetPoint" />
          </mxGeometry>
        </mxCell>
        <mxCell id="vHfRtZglOtGdkVwa5CTu-60" value="Tip" style="rhombus;whiteSpace=wrap;html=1;fontSize=16;" vertex="1" parent="WIyWlLk6GJQsqaUBKTNV-1">
          <mxGeometry x="645" y="1130" width="130" height="150" as="geometry" />
        </mxCell>
        <mxCell id="vHfRtZglOtGdkVwa5CTu-71" style="edgeStyle=none;curved=1;rounded=0;orthogonalLoop=1;jettySize=auto;html=1;fontSize=12;startSize=8;endSize=8;entryX=0.5;entryY=0;entryDx=0;entryDy=0;" edge="1" parent="WIyWlLk6GJQsqaUBKTNV-1" source="vHfRtZglOtGdkVwa5CTu-62" target="vHfRtZglOtGdkVwa5CTu-72">
          <mxGeometry relative="1" as="geometry">
            <mxPoint x="870" y="1430" as="targetPoint" />
          </mxGeometry>
        </mxCell>
        <mxCell id="vHfRtZglOtGdkVwa5CTu-62" value="Add extra 2.5$" style="whiteSpace=wrap;html=1;fontSize=16;" vertex="1" parent="WIyWlLk6GJQsqaUBKTNV-1">
          <mxGeometry x="650" y="1400" width="120" height="60" as="geometry" />
        </mxCell>
        <mxCell id="vHfRtZglOtGdkVwa5CTu-75" value="No" style="edgeStyle=none;curved=1;rounded=0;orthogonalLoop=1;jettySize=auto;html=1;entryX=0.5;entryY=0;entryDx=0;entryDy=0;fontSize=12;startSize=8;endSize=8;" edge="1" parent="WIyWlLk6GJQsqaUBKTNV-1" source="vHfRtZglOtGdkVwa5CTu-66" target="vHfRtZglOtGdkVwa5CTu-72">
          <mxGeometry relative="1" as="geometry" />
        </mxCell>
        <mxCell id="vHfRtZglOtGdkVwa5CTu-66" value="Tip" style="rhombus;whiteSpace=wrap;html=1;fontSize=16;" vertex="1" parent="WIyWlLk6GJQsqaUBKTNV-1">
          <mxGeometry x="1020" y="1120" width="130" height="150" as="geometry" />
        </mxCell>
        <mxCell id="vHfRtZglOtGdkVwa5CTu-67" value="" style="endArrow=classic;html=1;rounded=0;fontSize=12;startSize=8;endSize=8;curved=1;" edge="1" parent="WIyWlLk6GJQsqaUBKTNV-1">
          <mxGeometry width="50" height="50" relative="1" as="geometry">
            <mxPoint x="1084.29" y="980" as="sourcePoint" />
            <mxPoint x="1084.29" y="1120" as="targetPoint" />
            <Array as="points">
              <mxPoint x="1085" y="1060" />
            </Array>
          </mxGeometry>
        </mxCell>
        <mxCell id="vHfRtZglOtGdkVwa5CTu-68" style="edgeStyle=none;curved=1;rounded=0;orthogonalLoop=1;jettySize=auto;html=1;fontSize=12;startSize=8;endSize=8;" edge="1" parent="WIyWlLk6GJQsqaUBKTNV-1">
          <mxGeometry relative="1" as="geometry">
            <mxPoint x="1090" y="1390" as="targetPoint" />
            <mxPoint x="1090" y="1270" as="sourcePoint" />
          </mxGeometry>
        </mxCell>
        <mxCell id="vHfRtZglOtGdkVwa5CTu-69" value="Yes&amp;nbsp;" style="edgeLabel;html=1;align=center;verticalAlign=middle;resizable=0;points=[];fontSize=16;" vertex="1" connectable="0" parent="vHfRtZglOtGdkVwa5CTu-68">
          <mxGeometry x="-0.3844" y="-1" relative="1" as="geometry">
            <mxPoint as="offset" />
          </mxGeometry>
        </mxCell>
        <mxCell id="vHfRtZglOtGdkVwa5CTu-73" style="edgeStyle=none;curved=1;rounded=0;orthogonalLoop=1;jettySize=auto;html=1;entryX=0.5;entryY=0;entryDx=0;entryDy=0;fontSize=12;startSize=8;endSize=8;" edge="1" parent="WIyWlLk6GJQsqaUBKTNV-1" source="vHfRtZglOtGdkVwa5CTu-70" target="vHfRtZglOtGdkVwa5CTu-72">
          <mxGeometry relative="1" as="geometry" />
        </mxCell>
        <mxCell id="vHfRtZglOtGdkVwa5CTu-70" value="Add Extra 3.0$" style="whiteSpace=wrap;html=1;fontSize=16;" vertex="1" parent="WIyWlLk6GJQsqaUBKTNV-1">
          <mxGeometry x="1040" y="1390" width="110" height="70" as="geometry" />
        </mxCell>
        <mxCell id="vHfRtZglOtGdkVwa5CTu-72" value="End" style="whiteSpace=wrap;html=1;fontSize=16;" vertex="1" parent="WIyWlLk6GJQsqaUBKTNV-1">
          <mxGeometry x="850" y="1510" width="120" height="60" as="geometry" />
        </mxCell>
        <mxCell id="vHfRtZglOtGdkVwa5CTu-76" value="Sub Process 2" style="text;html=1;align=center;verticalAlign=middle;resizable=0;points=[];autosize=1;strokeColor=none;fillColor=none;fontSize=16;" vertex="1" parent="WIyWlLk6GJQsqaUBKTNV-1">
          <mxGeometry x="1320" y="48" width="130" height="30" as="geometry" />
        </mxCell>
        <mxCell id="vHfRtZglOtGdkVwa5CTu-77" style="edgeStyle=none;curved=1;rounded=0;orthogonalLoop=1;jettySize=auto;html=1;fontSize=12;startSize=8;endSize=8;" edge="1" parent="WIyWlLk6GJQsqaUBKTNV-1" source="vHfRtZglOtGdkVwa5CTu-78" target="vHfRtZglOtGdkVwa5CTu-80">
          <mxGeometry relative="1" as="geometry">
            <mxPoint x="1170" y="320" as="targetPoint" />
          </mxGeometry>
        </mxCell>
        <mxCell id="vHfRtZglOtGdkVwa5CTu-78" value="Start" style="ellipse;whiteSpace=wrap;html=1;fontSize=16;" vertex="1" parent="WIyWlLk6GJQsqaUBKTNV-1">
          <mxGeometry x="1330" y="120" width="120" height="80" as="geometry" />
        </mxCell>
        <mxCell id="vHfRtZglOtGdkVwa5CTu-79" style="edgeStyle=none;curved=1;rounded=0;orthogonalLoop=1;jettySize=auto;html=1;fontSize=12;startSize=8;endSize=8;" edge="1" parent="WIyWlLk6GJQsqaUBKTNV-1" source="vHfRtZglOtGdkVwa5CTu-80">
          <mxGeometry relative="1" as="geometry">
            <mxPoint x="1395" y="500" as="targetPoint" />
          </mxGeometry>
        </mxCell>
        <mxCell id="vHfRtZglOtGdkVwa5CTu-80" value="Standart" style="rounded=1;whiteSpace=wrap;html=1;fontSize=16;" vertex="1" parent="WIyWlLk6GJQsqaUBKTNV-1">
          <mxGeometry x="1340" y="310" width="110" height="60" as="geometry" />
        </mxCell>
        <mxCell id="vHfRtZglOtGdkVwa5CTu-81" style="edgeStyle=none;curved=1;rounded=0;orthogonalLoop=1;jettySize=auto;html=1;fontSize=12;startSize=8;endSize=8;entryX=0.5;entryY=1;entryDx=0;entryDy=0;" edge="1" parent="WIyWlLk6GJQsqaUBKTNV-1" target="vHfRtZglOtGdkVwa5CTu-88">
          <mxGeometry relative="1" as="geometry">
            <mxPoint x="1430" y="735" as="targetPoint" />
            <mxPoint x="1300" y="735" as="sourcePoint" />
            <Array as="points">
              <mxPoint x="1360" y="735" />
            </Array>
          </mxGeometry>
        </mxCell>
        <mxCell id="vHfRtZglOtGdkVwa5CTu-82" value="NO" style="edgeLabel;html=1;align=center;verticalAlign=middle;resizable=0;points=[];fontSize=16;" vertex="1" connectable="0" parent="vHfRtZglOtGdkVwa5CTu-81">
          <mxGeometry x="-0.3342" y="20" relative="1" as="geometry">
            <mxPoint y="-1" as="offset" />
          </mxGeometry>
        </mxCell>
        <mxCell id="vHfRtZglOtGdkVwa5CTu-83" style="edgeStyle=none;curved=1;rounded=0;orthogonalLoop=1;jettySize=auto;html=1;fontSize=12;startSize=8;endSize=8;" edge="1" parent="WIyWlLk6GJQsqaUBKTNV-1">
          <mxGeometry relative="1" as="geometry">
            <mxPoint x="1235" y="960" as="targetPoint" />
            <mxPoint x="1235" y="810" as="sourcePoint" />
          </mxGeometry>
        </mxCell>
        <mxCell id="vHfRtZglOtGdkVwa5CTu-84" value="Yes" style="edgeLabel;html=1;align=center;verticalAlign=middle;resizable=0;points=[];fontSize=16;" vertex="1" connectable="0" parent="vHfRtZglOtGdkVwa5CTu-83">
          <mxGeometry x="-0.2248" y="1" relative="1" as="geometry">
            <mxPoint as="offset" />
          </mxGeometry>
        </mxCell>
        <mxCell id="vHfRtZglOtGdkVwa5CTu-85" style="edgeStyle=none;curved=1;rounded=0;orthogonalLoop=1;jettySize=auto;html=1;entryX=0.5;entryY=1;entryDx=0;entryDy=0;fontSize=12;startSize=8;endSize=8;" edge="1" parent="WIyWlLk6GJQsqaUBKTNV-1">
          <mxGeometry relative="1" as="geometry">
            <mxPoint x="1560" y="740" as="sourcePoint" />
            <mxPoint x="1560" y="740" as="targetPoint" />
          </mxGeometry>
        </mxCell>
        <mxCell id="vHfRtZglOtGdkVwa5CTu-86" style="edgeStyle=none;curved=1;rounded=0;orthogonalLoop=1;jettySize=auto;html=1;fontSize=12;startSize=8;endSize=8;" edge="1" parent="WIyWlLk6GJQsqaUBKTNV-1" source="vHfRtZglOtGdkVwa5CTu-88">
          <mxGeometry relative="1" as="geometry">
            <mxPoint x="1610" y="510" as="targetPoint" />
          </mxGeometry>
        </mxCell>
        <mxCell id="vHfRtZglOtGdkVwa5CTu-87" style="edgeStyle=none;curved=1;rounded=0;orthogonalLoop=1;jettySize=auto;html=1;fontSize=12;startSize=8;endSize=8;" edge="1" parent="WIyWlLk6GJQsqaUBKTNV-1" source="vHfRtZglOtGdkVwa5CTu-88">
          <mxGeometry relative="1" as="geometry">
            <mxPoint x="1230" y="510" as="targetPoint" />
          </mxGeometry>
        </mxCell>
        <mxCell id="vHfRtZglOtGdkVwa5CTu-88" value="Calculate the date" style="whiteSpace=wrap;html=1;fontSize=16;" vertex="1" parent="WIyWlLk6GJQsqaUBKTNV-1">
          <mxGeometry x="1340" y="480" width="120" height="60" as="geometry" />
        </mxCell>
        <mxCell id="vHfRtZglOtGdkVwa5CTu-89" value="" style="endArrow=classic;html=1;rounded=0;fontSize=12;startSize=8;endSize=8;curved=1;" edge="1" parent="WIyWlLk6GJQsqaUBKTNV-1">
          <mxGeometry width="50" height="50" relative="1" as="geometry">
            <mxPoint x="1230" y="510" as="sourcePoint" />
            <mxPoint x="1233" y="662" as="targetPoint" />
          </mxGeometry>
        </mxCell>
        <mxCell id="vHfRtZglOtGdkVwa5CTu-90" value="" style="endArrow=classic;html=1;rounded=0;fontSize=12;startSize=8;endSize=8;curved=1;" edge="1" parent="WIyWlLk6GJQsqaUBKTNV-1">
          <mxGeometry width="50" height="50" relative="1" as="geometry">
            <mxPoint x="1610" y="510" as="sourcePoint" />
            <mxPoint x="1610" y="670" as="targetPoint" />
          </mxGeometry>
        </mxCell>
        <mxCell id="vHfRtZglOtGdkVwa5CTu-91" style="edgeStyle=none;curved=1;rounded=0;orthogonalLoop=1;jettySize=auto;html=1;fontSize=12;startSize=8;endSize=8;entryX=0.619;entryY=1.017;entryDx=0;entryDy=0;entryPerimeter=0;" edge="1" parent="WIyWlLk6GJQsqaUBKTNV-1" source="vHfRtZglOtGdkVwa5CTu-94" target="vHfRtZglOtGdkVwa5CTu-88">
          <mxGeometry relative="1" as="geometry">
            <mxPoint x="1440" y="725" as="targetPoint" />
            <Array as="points">
              <mxPoint x="1490" y="725" />
            </Array>
          </mxGeometry>
        </mxCell>
        <mxCell id="vHfRtZglOtGdkVwa5CTu-92" value="NO" style="edgeLabel;html=1;align=center;verticalAlign=middle;resizable=0;points=[];fontSize=16;" vertex="1" connectable="0" parent="vHfRtZglOtGdkVwa5CTu-91">
          <mxGeometry x="-0.209" y="-9" relative="1" as="geometry">
            <mxPoint as="offset" />
          </mxGeometry>
        </mxCell>
        <mxCell id="vHfRtZglOtGdkVwa5CTu-93" value="Yes" style="edgeStyle=none;curved=1;rounded=0;orthogonalLoop=1;jettySize=auto;html=1;fontSize=12;startSize=8;endSize=8;" edge="1" parent="WIyWlLk6GJQsqaUBKTNV-1" source="vHfRtZglOtGdkVwa5CTu-94">
          <mxGeometry relative="1" as="geometry">
            <mxPoint x="1610" y="950" as="targetPoint" />
          </mxGeometry>
        </mxCell>
        <mxCell id="vHfRtZglOtGdkVwa5CTu-94" value="Evening" style="rhombus;whiteSpace=wrap;html=1;fontSize=16;" vertex="1" parent="WIyWlLk6GJQsqaUBKTNV-1">
          <mxGeometry x="1540" y="650" width="130" height="150" as="geometry" />
        </mxCell>
        <mxCell id="vHfRtZglOtGdkVwa5CTu-95" value="Pay 20$" style="whiteSpace=wrap;html=1;fontSize=16;" vertex="1" parent="WIyWlLk6GJQsqaUBKTNV-1">
          <mxGeometry x="1550" y="940" width="120" height="60" as="geometry" />
        </mxCell>
        <mxCell id="vHfRtZglOtGdkVwa5CTu-96" value="" style="endArrow=classic;html=1;rounded=0;fontSize=12;startSize=8;endSize=8;curved=1;" edge="1" parent="WIyWlLk6GJQsqaUBKTNV-1">
          <mxGeometry width="50" height="50" relative="1" as="geometry">
            <mxPoint x="1239.29" y="1020" as="sourcePoint" />
            <mxPoint x="1239.29" y="1160" as="targetPoint" />
          </mxGeometry>
        </mxCell>
        <mxCell id="vHfRtZglOtGdkVwa5CTu-97" style="edgeStyle=none;curved=1;rounded=0;orthogonalLoop=1;jettySize=auto;html=1;fontSize=12;startSize=8;endSize=8;" edge="1" parent="WIyWlLk6GJQsqaUBKTNV-1">
          <mxGeometry relative="1" as="geometry">
            <mxPoint x="1240" y="1420" as="targetPoint" />
            <mxPoint x="1240" y="1300" as="sourcePoint" />
          </mxGeometry>
        </mxCell>
        <mxCell id="vHfRtZglOtGdkVwa5CTu-98" value="Yes&amp;nbsp;" style="edgeLabel;html=1;align=center;verticalAlign=middle;resizable=0;points=[];fontSize=16;" vertex="1" connectable="0" parent="vHfRtZglOtGdkVwa5CTu-97">
          <mxGeometry x="-0.3844" y="-1" relative="1" as="geometry">
            <mxPoint as="offset" />
          </mxGeometry>
        </mxCell>
        <mxCell id="vHfRtZglOtGdkVwa5CTu-99" value="NO" style="edgeStyle=none;curved=1;rounded=0;orthogonalLoop=1;jettySize=auto;html=1;fontSize=12;startSize=8;endSize=8;entryX=0.5;entryY=0;entryDx=0;entryDy=0;" edge="1" parent="WIyWlLk6GJQsqaUBKTNV-1" target="vHfRtZglOtGdkVwa5CTu-108">
          <mxGeometry relative="1" as="geometry">
            <mxPoint x="1420" y="1225" as="targetPoint" />
            <mxPoint x="1268" y="1268" as="sourcePoint" />
          </mxGeometry>
        </mxCell>
        <mxCell id="vHfRtZglOtGdkVwa5CTu-100" style="edgeStyle=none;curved=1;rounded=0;orthogonalLoop=1;jettySize=auto;html=1;fontSize=12;startSize=8;endSize=8;entryX=0.5;entryY=0;entryDx=0;entryDy=0;" edge="1" parent="WIyWlLk6GJQsqaUBKTNV-1" target="vHfRtZglOtGdkVwa5CTu-108">
          <mxGeometry relative="1" as="geometry">
            <mxPoint x="1400" y="1450" as="targetPoint" />
            <mxPoint x="1300" y="1474" as="sourcePoint" />
          </mxGeometry>
        </mxCell>
        <mxCell id="vHfRtZglOtGdkVwa5CTu-101" value="No" style="edgeStyle=none;curved=1;rounded=0;orthogonalLoop=1;jettySize=auto;html=1;entryX=0.5;entryY=0;entryDx=0;entryDy=0;fontSize=12;startSize=8;endSize=8;" edge="1" parent="WIyWlLk6GJQsqaUBKTNV-1" source="vHfRtZglOtGdkVwa5CTu-102" target="vHfRtZglOtGdkVwa5CTu-108">
          <mxGeometry relative="1" as="geometry" />
        </mxCell>
        <mxCell id="vHfRtZglOtGdkVwa5CTu-102" value="Tip" style="rhombus;whiteSpace=wrap;html=1;fontSize=16;" vertex="1" parent="WIyWlLk6GJQsqaUBKTNV-1">
          <mxGeometry x="1550" y="1140" width="130" height="150" as="geometry" />
        </mxCell>
        <mxCell id="vHfRtZglOtGdkVwa5CTu-103" value="" style="endArrow=classic;html=1;rounded=0;fontSize=12;startSize=8;endSize=8;curved=1;" edge="1" parent="WIyWlLk6GJQsqaUBKTNV-1">
          <mxGeometry width="50" height="50" relative="1" as="geometry">
            <mxPoint x="1614.29" y="1000" as="sourcePoint" />
            <mxPoint x="1614.29" y="1140" as="targetPoint" />
            <Array as="points">
              <mxPoint x="1615" y="1080" />
            </Array>
          </mxGeometry>
        </mxCell>
        <mxCell id="vHfRtZglOtGdkVwa5CTu-104" style="edgeStyle=none;curved=1;rounded=0;orthogonalLoop=1;jettySize=auto;html=1;fontSize=12;startSize=8;endSize=8;" edge="1" parent="WIyWlLk6GJQsqaUBKTNV-1">
          <mxGeometry relative="1" as="geometry">
            <mxPoint x="1620" y="1410" as="targetPoint" />
            <mxPoint x="1620" y="1290" as="sourcePoint" />
          </mxGeometry>
        </mxCell>
        <mxCell id="vHfRtZglOtGdkVwa5CTu-105" value="Yes&amp;nbsp;" style="edgeLabel;html=1;align=center;verticalAlign=middle;resizable=0;points=[];fontSize=16;" vertex="1" connectable="0" parent="vHfRtZglOtGdkVwa5CTu-104">
          <mxGeometry x="-0.3844" y="-1" relative="1" as="geometry">
            <mxPoint as="offset" />
          </mxGeometry>
        </mxCell>
        <mxCell id="vHfRtZglOtGdkVwa5CTu-106" style="edgeStyle=none;curved=1;rounded=0;orthogonalLoop=1;jettySize=auto;html=1;entryX=0.5;entryY=0;entryDx=0;entryDy=0;fontSize=12;startSize=8;endSize=8;" edge="1" parent="WIyWlLk6GJQsqaUBKTNV-1" source="vHfRtZglOtGdkVwa5CTu-107" target="vHfRtZglOtGdkVwa5CTu-108">
          <mxGeometry relative="1" as="geometry" />
        </mxCell>
        <mxCell id="vHfRtZglOtGdkVwa5CTu-107" value="Add Extra 4.0$" style="whiteSpace=wrap;html=1;fontSize=16;" vertex="1" parent="WIyWlLk6GJQsqaUBKTNV-1">
          <mxGeometry x="1570" y="1410" width="110" height="70" as="geometry" />
        </mxCell>
        <mxCell id="vHfRtZglOtGdkVwa5CTu-108" value="End" style="whiteSpace=wrap;html=1;fontSize=16;" vertex="1" parent="WIyWlLk6GJQsqaUBKTNV-1">
          <mxGeometry x="1380" y="1530" width="120" height="60" as="geometry" />
        </mxCell>
        <mxCell id="vHfRtZglOtGdkVwa5CTu-109" value="Maintee" style="rhombus;whiteSpace=wrap;html=1;fontSize=16;" vertex="1" parent="WIyWlLk6GJQsqaUBKTNV-1">
          <mxGeometry x="1170" y="660" width="130" height="150" as="geometry" />
        </mxCell>
        <mxCell id="vHfRtZglOtGdkVwa5CTu-110" value="Pay 10$" style="whiteSpace=wrap;html=1;fontSize=16;" vertex="1" parent="WIyWlLk6GJQsqaUBKTNV-1">
          <mxGeometry x="1170" y="955" width="120" height="60" as="geometry" />
        </mxCell>
        <mxCell id="vHfRtZglOtGdkVwa5CTu-111" value="Tip" style="rhombus;whiteSpace=wrap;html=1;fontSize=16;" vertex="1" parent="WIyWlLk6GJQsqaUBKTNV-1">
          <mxGeometry x="1176" y="1160" width="130" height="150" as="geometry" />
        </mxCell>
        <mxCell id="vHfRtZglOtGdkVwa5CTu-112" value="Add extra 4.75$" style="whiteSpace=wrap;html=1;fontSize=16;" vertex="1" parent="WIyWlLk6GJQsqaUBKTNV-1">
          <mxGeometry x="1180" y="1420" width="120" height="70" as="geometry" />
        </mxCell>
        <mxCell id="vHfRtZglOtGdkVwa5CTu-116" style="edgeStyle=none;curved=1;rounded=0;orthogonalLoop=1;jettySize=auto;html=1;fontSize=12;startSize=8;endSize=8;" edge="1" parent="WIyWlLk6GJQsqaUBKTNV-1" source="vHfRtZglOtGdkVwa5CTu-113">
          <mxGeometry relative="1" as="geometry">
            <mxPoint x="2100.0000000000005" y="310" as="targetPoint" />
          </mxGeometry>
        </mxCell>
        <mxCell id="vHfRtZglOtGdkVwa5CTu-113" value="Start" style="ellipse;whiteSpace=wrap;html=1;fontSize=16;" vertex="1" parent="WIyWlLk6GJQsqaUBKTNV-1">
          <mxGeometry x="2060" y="110" width="80" height="80" as="geometry" />
        </mxCell>
        <mxCell id="vHfRtZglOtGdkVwa5CTu-115" value="Main Flowchart" style="text;html=1;align=center;verticalAlign=middle;resizable=0;points=[];autosize=1;strokeColor=none;fillColor=none;fontSize=16;" vertex="1" parent="WIyWlLk6GJQsqaUBKTNV-1">
          <mxGeometry x="2025" y="48" width="130" height="30" as="geometry" />
        </mxCell>
        <mxCell id="vHfRtZglOtGdkVwa5CTu-118" style="edgeStyle=none;curved=1;rounded=0;orthogonalLoop=1;jettySize=auto;html=1;fontSize=12;startSize=8;endSize=8;" edge="1" parent="WIyWlLk6GJQsqaUBKTNV-1" source="vHfRtZglOtGdkVwa5CTu-117">
          <mxGeometry relative="1" as="geometry">
            <mxPoint x="2100.0000000000005" y="480" as="targetPoint" />
          </mxGeometry>
        </mxCell>
        <mxCell id="vHfRtZglOtGdkVwa5CTu-117" value="Cover Charges" style="whiteSpace=wrap;html=1;fontSize=16;" vertex="1" parent="WIyWlLk6GJQsqaUBKTNV-1">
          <mxGeometry x="2040" y="300" width="120" height="60" as="geometry" />
        </mxCell>
        <mxCell id="vHfRtZglOtGdkVwa5CTu-120" style="edgeStyle=none;curved=1;rounded=0;orthogonalLoop=1;jettySize=auto;html=1;fontSize=12;startSize=8;endSize=8;" edge="1" parent="WIyWlLk6GJQsqaUBKTNV-1" source="vHfRtZglOtGdkVwa5CTu-119">
          <mxGeometry relative="1" as="geometry">
            <mxPoint x="2100" y="640" as="targetPoint" />
          </mxGeometry>
        </mxCell>
        <mxCell id="vHfRtZglOtGdkVwa5CTu-119" value="Ticket Charges" style="whiteSpace=wrap;html=1;fontSize=16;" vertex="1" parent="WIyWlLk6GJQsqaUBKTNV-1">
          <mxGeometry x="2040" y="470" width="120" height="60" as="geometry" />
        </mxCell>
        <mxCell id="vHfRtZglOtGdkVwa5CTu-122" style="edgeStyle=none;curved=1;rounded=0;orthogonalLoop=1;jettySize=auto;html=1;fontSize=12;startSize=8;endSize=8;" edge="1" parent="WIyWlLk6GJQsqaUBKTNV-1" source="vHfRtZglOtGdkVwa5CTu-121" target="vHfRtZglOtGdkVwa5CTu-123">
          <mxGeometry relative="1" as="geometry">
            <mxPoint x="2100" y="930" as="targetPoint" />
          </mxGeometry>
        </mxCell>
        <mxCell id="vHfRtZglOtGdkVwa5CTu-131" value="Yes" style="edgeLabel;html=1;align=center;verticalAlign=middle;resizable=0;points=[];fontSize=16;" vertex="1" connectable="0" parent="vHfRtZglOtGdkVwa5CTu-122">
          <mxGeometry x="-0.3846" y="-5" relative="1" as="geometry">
            <mxPoint as="offset" />
          </mxGeometry>
        </mxCell>
        <mxCell id="vHfRtZglOtGdkVwa5CTu-132" style="edgeStyle=none;curved=1;rounded=0;orthogonalLoop=1;jettySize=auto;html=1;fontSize=12;startSize=8;endSize=8;" edge="1" parent="WIyWlLk6GJQsqaUBKTNV-1" source="vHfRtZglOtGdkVwa5CTu-121">
          <mxGeometry relative="1" as="geometry">
            <mxPoint x="2390" y="960" as="targetPoint" />
            <Array as="points">
              <mxPoint x="2340" y="700" />
              <mxPoint x="2390" y="710" />
            </Array>
          </mxGeometry>
        </mxCell>
        <mxCell id="vHfRtZglOtGdkVwa5CTu-134" value="No" style="edgeLabel;html=1;align=center;verticalAlign=middle;resizable=0;points=[];fontSize=16;" vertex="1" connectable="0" parent="vHfRtZglOtGdkVwa5CTu-132">
          <mxGeometry x="-0.7796" y="3" relative="1" as="geometry">
            <mxPoint as="offset" />
          </mxGeometry>
        </mxCell>
        <mxCell id="vHfRtZglOtGdkVwa5CTu-121" value="Snack" style="rhombus;whiteSpace=wrap;html=1;fontSize=16;" vertex="1" parent="WIyWlLk6GJQsqaUBKTNV-1">
          <mxGeometry x="2040" y="630" width="120" height="140" as="geometry" />
        </mxCell>
        <mxCell id="vHfRtZglOtGdkVwa5CTu-125" style="edgeStyle=none;curved=1;rounded=0;orthogonalLoop=1;jettySize=auto;html=1;fontSize=12;startSize=8;endSize=8;" edge="1" parent="WIyWlLk6GJQsqaUBKTNV-1" source="vHfRtZglOtGdkVwa5CTu-123">
          <mxGeometry relative="1" as="geometry">
            <mxPoint x="2100" y="1090" as="targetPoint" />
          </mxGeometry>
        </mxCell>
        <mxCell id="vHfRtZglOtGdkVwa5CTu-123" value="Snack Charges" style="rounded=0;whiteSpace=wrap;html=1;fontSize=16;" vertex="1" parent="WIyWlLk6GJQsqaUBKTNV-1">
          <mxGeometry x="2040" y="900" width="120" height="60" as="geometry" />
        </mxCell>
        <mxCell id="vHfRtZglOtGdkVwa5CTu-127" style="edgeStyle=none;curved=1;rounded=0;orthogonalLoop=1;jettySize=auto;html=1;fontSize=12;startSize=8;endSize=8;" edge="1" parent="WIyWlLk6GJQsqaUBKTNV-1" source="vHfRtZglOtGdkVwa5CTu-126">
          <mxGeometry relative="1" as="geometry">
            <mxPoint x="2100" y="1240" as="targetPoint" />
          </mxGeometry>
        </mxCell>
        <mxCell id="vHfRtZglOtGdkVwa5CTu-126" value="Valet Charges" style="whiteSpace=wrap;html=1;fontSize=16;" vertex="1" parent="WIyWlLk6GJQsqaUBKTNV-1">
          <mxGeometry x="2040" y="1090" width="120" height="60" as="geometry" />
        </mxCell>
        <mxCell id="vHfRtZglOtGdkVwa5CTu-129" style="edgeStyle=none;curved=1;rounded=0;orthogonalLoop=1;jettySize=auto;html=1;fontSize=12;startSize=8;endSize=8;" edge="1" parent="WIyWlLk6GJQsqaUBKTNV-1" source="vHfRtZglOtGdkVwa5CTu-128">
          <mxGeometry relative="1" as="geometry">
            <mxPoint x="2100" y="1390" as="targetPoint" />
          </mxGeometry>
        </mxCell>
        <mxCell id="vHfRtZglOtGdkVwa5CTu-128" value="Calculat Total" style="whiteSpace=wrap;html=1;fontSize=16;" vertex="1" parent="WIyWlLk6GJQsqaUBKTNV-1">
          <mxGeometry x="2040" y="1240" width="120" height="60" as="geometry" />
        </mxCell>
        <mxCell id="vHfRtZglOtGdkVwa5CTu-135" value="yes" style="edgeStyle=none;curved=1;rounded=0;orthogonalLoop=1;jettySize=auto;html=1;fontSize=12;startSize=8;endSize=8;" edge="1" parent="WIyWlLk6GJQsqaUBKTNV-1" source="vHfRtZglOtGdkVwa5CTu-130">
          <mxGeometry relative="1" as="geometry">
            <mxPoint x="2100" y="1590" as="targetPoint" />
          </mxGeometry>
        </mxCell>
        <mxCell id="vHfRtZglOtGdkVwa5CTu-137" style="edgeStyle=none;curved=1;rounded=0;orthogonalLoop=1;jettySize=auto;html=1;fontSize=12;startSize=8;endSize=8;" edge="1" parent="WIyWlLk6GJQsqaUBKTNV-1" source="vHfRtZglOtGdkVwa5CTu-130">
          <mxGeometry relative="1" as="geometry">
            <mxPoint x="2370" y="1420" as="targetPoint" />
            <Array as="points" />
          </mxGeometry>
        </mxCell>
        <mxCell id="vHfRtZglOtGdkVwa5CTu-140" value="No" style="edgeLabel;html=1;align=center;verticalAlign=middle;resizable=0;points=[];fontSize=16;" vertex="1" connectable="0" parent="vHfRtZglOtGdkVwa5CTu-137">
          <mxGeometry x="-0.2571" y="2" relative="1" as="geometry">
            <mxPoint as="offset" />
          </mxGeometry>
        </mxCell>
        <mxCell id="vHfRtZglOtGdkVwa5CTu-130" value="Calculate after Discount" style="whiteSpace=wrap;html=1;fontSize=16;" vertex="1" parent="WIyWlLk6GJQsqaUBKTNV-1">
          <mxGeometry x="2040" y="1390" width="120" height="60" as="geometry" />
        </mxCell>
        <mxCell id="vHfRtZglOtGdkVwa5CTu-133" value="" style="endArrow=classic;html=1;rounded=0;fontSize=12;startSize=8;endSize=8;curved=1;entryX=1;entryY=0.75;entryDx=0;entryDy=0;" edge="1" parent="WIyWlLk6GJQsqaUBKTNV-1" target="vHfRtZglOtGdkVwa5CTu-123">
          <mxGeometry width="50" height="50" relative="1" as="geometry">
            <mxPoint x="2390" y="960" as="sourcePoint" />
            <mxPoint x="2170" y="950" as="targetPoint" />
          </mxGeometry>
        </mxCell>
        <mxCell id="vHfRtZglOtGdkVwa5CTu-141" style="edgeStyle=none;curved=1;rounded=0;orthogonalLoop=1;jettySize=auto;html=1;fontSize=12;startSize=8;endSize=8;" edge="1" parent="WIyWlLk6GJQsqaUBKTNV-1" source="vHfRtZglOtGdkVwa5CTu-136">
          <mxGeometry relative="1" as="geometry">
            <mxPoint x="2110" y="1780" as="targetPoint" />
          </mxGeometry>
        </mxCell>
        <mxCell id="vHfRtZglOtGdkVwa5CTu-136" value="Calculate total discount" style="whiteSpace=wrap;html=1;fontSize=16;" vertex="1" parent="WIyWlLk6GJQsqaUBKTNV-1">
          <mxGeometry x="2050" y="1590" width="120" height="60" as="geometry" />
        </mxCell>
        <mxCell id="vHfRtZglOtGdkVwa5CTu-138" value="" style="endArrow=classic;html=1;rounded=0;fontSize=12;startSize=8;endSize=8;curved=1;" edge="1" parent="WIyWlLk6GJQsqaUBKTNV-1">
          <mxGeometry width="50" height="50" relative="1" as="geometry">
            <mxPoint x="2360" y="1410" as="sourcePoint" />
            <mxPoint x="2350" y="1260" as="targetPoint" />
          </mxGeometry>
        </mxCell>
        <mxCell id="vHfRtZglOtGdkVwa5CTu-139" value="" style="endArrow=classic;html=1;rounded=0;fontSize=12;startSize=8;endSize=8;curved=1;entryX=1;entryY=0.5;entryDx=0;entryDy=0;" edge="1" parent="WIyWlLk6GJQsqaUBKTNV-1" target="vHfRtZglOtGdkVwa5CTu-128">
          <mxGeometry width="50" height="50" relative="1" as="geometry">
            <mxPoint x="2350" y="1260" as="sourcePoint" />
            <mxPoint x="2270" y="1250" as="targetPoint" />
          </mxGeometry>
        </mxCell>
        <mxCell id="vHfRtZglOtGdkVwa5CTu-143" value="End" style="ellipse;whiteSpace=wrap;html=1;fontSize=16;" vertex="1" parent="WIyWlLk6GJQsqaUBKTNV-1">
          <mxGeometry x="2070" y="1780" width="80" height="80" as="geometry" />
        </mxCell>
      </root>
    </mxGraphModel>
  </diagram>
</mxfile>
